<svg width="163" height="20" viewBox="0 0 163 20" fill="none" xmlns="http://www.w3.org/2000/svg">
<rect x="20.0391" y="5.74573" width="5.89423" height="5.68441" rx="2.84221" transform="rotate(180 20.0391 5.74573)" fill="#00FF9E"/>
<rect x="20.0391" y="12.73" width="12.9673" height="5.68441" rx="2.84221" transform="rotate(180 20.0391 12.73)" fill="#A164FF"/>
<rect x="20.0391" y="19.7144" width="20.0404" height="5.68441" rx="2.84221" transform="rotate(180 20.0391 19.7144)" fill="#3333DD"/>
<path d="M29.8295 19.7714C29.2712 19.7714 28.8669 19.6877 28.6166 19.5202C28.3663 19.3713 28.2027 19.1665 28.1257 18.906C28.0679 18.6454 28.0391 18.3662 28.0391 18.0684V1.9596C28.0391 1.64319 28.0679 1.3547 28.1257 1.09413C28.2027 0.833562 28.3567 0.628828 28.5877 0.47993C28.838 0.331034 29.2423 0.256586 29.8006 0.256586C30.3397 0.256586 30.7247 0.331034 30.9557 0.47993C31.206 0.628828 31.36 0.833562 31.4178 1.09413C31.4948 1.3547 31.5333 1.64319 31.5333 1.9596V16.7563H40.341C40.6298 16.7563 40.8897 16.7842 41.1207 16.84C41.3517 16.8772 41.5346 17.0075 41.6693 17.2309C41.8041 17.4356 41.8715 17.7706 41.8715 18.2359C41.8715 18.7012 41.8041 19.0456 41.6693 19.2689C41.5346 19.4736 41.3517 19.6039 41.1207 19.6598C40.8897 19.7342 40.6298 19.7714 40.341 19.7714H29.8295Z" fill="black"/>
<path d="M45.2942 19.7714C44.7744 19.7714 44.3893 19.6877 44.1391 19.5202C43.8888 19.3713 43.7348 19.1758 43.677 18.9339C43.6193 18.6733 43.5904 18.3848 43.5904 18.0684V7.68284C43.5904 7.38504 43.6193 7.11517 43.677 6.87321C43.754 6.61264 43.9081 6.4079 44.1391 6.25901C44.3893 6.11011 44.784 6.03566 45.3231 6.03566C45.8621 6.03566 46.2471 6.11011 46.4782 6.25901C46.7284 6.4079 46.8825 6.61264 46.9402 6.87321C46.998 7.13378 47.0268 7.42227 47.0268 7.73867V18.0963C47.0268 18.4127 46.998 18.7012 46.9402 18.9618C46.8825 19.2038 46.7284 19.3992 46.4782 19.5481C46.2471 19.697 45.8525 19.7714 45.2942 19.7714Z" fill="black"/>
<path d="M56.0482 19.8273C55.6439 19.8273 55.307 19.7621 55.0375 19.6318C54.768 19.5016 54.5562 19.2875 54.4022 18.9897L49.1464 8.35288C48.8576 7.79451 48.7806 7.34782 48.9154 7.0128C49.0502 6.67778 49.3967 6.37999 49.955 6.11942C50.5326 5.84023 50.9946 5.74717 51.3411 5.84023C51.6877 5.93329 51.9957 6.27762 52.2652 6.87321L56.0482 15.4441L59.7734 7.04072C60.043 6.42652 60.351 6.04497 60.6975 5.89607C61.044 5.72856 61.5446 5.80301 62.1992 6.11942C62.8537 6.43582 63.2003 6.78945 63.2388 7.18031C63.2773 7.55255 63.1714 7.98063 62.9211 8.46455L57.6942 18.9897C57.5402 19.2689 57.3284 19.4736 57.0589 19.6039C56.7894 19.7528 56.4525 19.8273 56.0482 19.8273Z" fill="black"/>
<path d="M70.9349 19.9389C69.6835 19.9389 68.5862 19.7435 67.6428 19.3527C66.7187 18.9618 65.939 18.4314 65.3037 17.7613C64.6877 17.0727 64.216 16.3096 63.8887 15.472C63.5807 14.6159 63.4267 13.7318 63.4267 12.8198C63.4267 11.4797 63.7443 10.2885 64.3797 9.24626C65.015 8.20398 65.8909 7.38504 67.0075 6.78945C68.1434 6.19386 69.4429 5.89607 70.906 5.89607C71.9456 5.89607 72.8601 6.05427 73.6494 6.37068C74.4387 6.68709 75.0933 7.10586 75.6131 7.627C76.1521 8.12953 76.5564 8.68789 76.826 9.3021C77.1147 9.9163 77.2591 10.5119 77.2591 11.0889C77.2591 12.0753 77.0088 12.7919 76.5083 13.2386C76.027 13.6853 75.4206 13.9086 74.689 13.9086H67.0653C67.0845 14.5414 67.2867 15.0905 67.6717 15.5558C68.076 16.0211 68.5765 16.384 69.1734 16.6446C69.7894 16.8865 70.4151 17.0075 71.0504 17.0075C71.5317 17.0075 71.9552 16.9796 72.321 16.9238C72.7061 16.8679 73.0333 16.8028 73.3029 16.7283C73.5724 16.6353 73.8034 16.5422 73.9959 16.4492C74.2077 16.3561 74.4002 16.2723 74.5735 16.1979C74.7468 16.1235 74.9104 16.0769 75.0644 16.0583C75.2762 16.0397 75.4879 16.0862 75.6997 16.1979C75.9115 16.3096 76.0848 16.505 76.2195 16.7842C76.335 16.9703 76.412 17.1471 76.4505 17.3146C76.5083 17.4635 76.5372 17.6124 76.5372 17.7613C76.5372 18.1336 76.3062 18.4872 75.8441 18.8222C75.3821 19.1386 74.7275 19.3992 73.8804 19.6039C73.0526 19.8273 72.0708 19.9389 70.9349 19.9389ZM67.0653 11.9264H72.9852C73.3125 11.9264 73.5628 11.8799 73.736 11.7868C73.9093 11.6751 73.9959 11.4518 73.9959 11.1168C73.9959 10.6887 73.8612 10.3072 73.5916 9.97213C73.3221 9.6185 72.9563 9.34863 72.4943 9.16251C72.0322 8.95777 71.4932 8.8554 70.8771 8.8554C70.1648 8.8554 69.5199 8.995 68.9423 9.27418C68.3648 9.53475 67.9027 9.89769 67.5562 10.363C67.2289 10.8283 67.0653 11.3494 67.0653 11.9264Z" fill="black"/>
<path d="M88.8698 19.8831C87.9264 19.8831 86.9735 19.7528 86.0109 19.4923C85.0483 19.2131 84.1242 18.8036 83.2386 18.2639C82.353 17.7055 81.5637 17.0261 80.8706 16.2258C80.1968 15.4069 79.6578 14.467 79.2535 13.4061C78.8492 12.3266 78.6471 11.1354 78.6471 9.83254C78.6471 8.5483 78.8492 7.39435 79.2535 6.37068C79.6578 5.3284 80.1968 4.4164 80.8706 3.63469C81.5637 2.85298 82.3434 2.20156 83.2097 1.68042C84.0953 1.15928 85.0194 0.76842 85.982 0.50785C86.9638 0.228667 87.9361 0.0797691 88.8986 0.0611572C89.8805 0.0611572 90.7276 0.163524 91.4399 0.368257C92.1522 0.572992 92.7298 0.796338 93.1726 1.0383C93.6153 1.26164 93.9137 1.41984 94.0678 1.51291C94.3758 1.69903 94.6646 1.91307 94.9341 2.15503C95.2229 2.37837 95.3769 2.65755 95.3961 2.99257C95.4154 3.21592 95.3865 3.42065 95.3095 3.60677C95.2325 3.77428 95.1266 3.9511 94.9919 4.13722C94.7608 4.45363 94.5298 4.68628 94.2988 4.83518C94.0678 4.98407 93.8367 5.05852 93.6057 5.05852C93.3939 5.05852 93.1918 5.00269 92.9993 4.89101C92.826 4.77934 92.6046 4.63975 92.3351 4.47224C92.2196 4.39779 92.0078 4.28612 91.6998 4.13722C91.411 3.96971 91.0163 3.82081 90.5158 3.69053C90.0345 3.56024 89.4473 3.4951 88.7543 3.4951C87.9264 3.4951 87.1179 3.63469 86.3285 3.91388C85.5392 4.19306 84.8269 4.61183 84.1916 5.1702C83.5755 5.70995 83.0846 6.38929 82.7188 7.20823C82.353 8.00855 82.1701 8.92985 82.1701 9.97213C82.1701 11.0144 82.353 11.945 82.7188 12.764C83.0846 13.5643 83.5755 14.2436 84.1916 14.802C84.8269 15.3417 85.5392 15.7512 86.3285 16.0304C87.1179 16.3096 87.9264 16.4492 88.7543 16.4492C89.4088 16.4492 89.9671 16.3933 90.4292 16.2817C90.9105 16.1514 91.3148 16.0025 91.642 15.835C91.9886 15.6488 92.2485 15.5093 92.4217 15.4162C92.6335 15.2859 92.8356 15.1649 93.0282 15.0533C93.2207 14.9416 93.4228 14.8857 93.6346 14.8857C93.8656 14.8857 94.087 14.9602 94.2988 15.1091C94.5298 15.258 94.7512 15.4999 94.963 15.835C95.0977 16.0397 95.2036 16.2351 95.2806 16.4212C95.3576 16.6074 95.3865 16.8028 95.3673 17.0075C95.348 17.3425 95.194 17.631 94.9052 17.873C94.6357 18.0963 94.3469 18.2918 94.0389 18.4593C93.8849 18.5523 93.5865 18.7198 93.1437 18.9618C92.7201 19.1852 92.1522 19.3899 91.4399 19.576C90.7276 19.7807 89.8709 19.8831 88.8698 19.8831Z" fill="black"/>
<path d="M108.672 19.7156C108.114 19.7156 107.7 19.6132 107.431 19.4085C107.161 19.2038 107.026 18.9246 107.026 18.571L107.229 17.6497C107.075 17.8916 106.815 18.1801 106.449 18.5151C106.083 18.8315 105.602 19.12 105.005 19.3806C104.408 19.6225 103.686 19.7435 102.839 19.7435C101.934 19.7435 101.078 19.5667 100.269 19.2131C99.4797 18.8408 98.777 18.3383 98.161 17.7055C97.5641 17.0541 97.0829 16.3189 96.7171 15.4999C96.3705 14.6624 96.1973 13.769 96.1973 12.8198C96.1973 11.9078 96.3705 11.0516 96.7171 10.2513C97.0829 9.43238 97.5738 8.70651 98.1898 8.07369C98.8059 7.44088 99.5086 6.94766 100.298 6.59403C101.106 6.22178 101.954 6.03566 102.839 6.03566C103.628 6.03566 104.293 6.13803 104.832 6.34276C105.39 6.5475 105.862 6.80807 106.247 7.12447C106.632 7.42227 106.949 7.73867 107.2 8.07369L107.026 7.26406C107.026 6.8546 107.161 6.5475 107.431 6.34276C107.7 6.11942 108.124 6.00774 108.701 6.00774C109.24 6.00774 109.625 6.0915 109.856 6.25901C110.087 6.4079 110.232 6.62194 110.29 6.90113C110.347 7.1617 110.376 7.45949 110.376 7.79451V18.0126C110.376 18.329 110.347 18.6175 110.29 18.8781C110.232 19.1386 110.078 19.3434 109.828 19.4923C109.597 19.6412 109.212 19.7156 108.672 19.7156ZM103.359 16.4771C104.014 16.4771 104.601 16.3189 105.12 16.0025C105.64 15.6861 106.054 15.258 106.362 14.7182C106.69 14.1599 106.853 13.5457 106.853 12.8756C106.853 12.1498 106.69 11.5169 106.362 10.9772C106.035 10.4374 105.602 10.0187 105.063 9.72087C104.543 9.40446 103.956 9.24626 103.301 9.24626C102.589 9.24626 101.954 9.41377 101.395 9.74879C100.837 10.0652 100.394 10.5026 100.067 11.0609C99.7589 11.6007 99.6048 12.2149 99.6048 12.9035C99.6048 13.5736 99.7685 14.1785 100.096 14.7182C100.423 15.258 100.866 15.6861 101.424 16.0025C102.002 16.3189 102.647 16.4771 103.359 16.4771Z" fill="black"/>
<path d="M114.4 19.7714C113.88 19.7714 113.495 19.6877 113.245 19.5202C113.014 19.3713 112.869 19.1665 112.812 18.906C112.754 18.6454 112.725 18.3569 112.725 18.0405V7.68284C112.725 7.34782 112.754 7.05933 112.812 6.81737C112.869 6.5568 113.014 6.36137 113.245 6.23109C113.495 6.08219 113.89 6.00774 114.429 6.00774C114.949 6.00774 115.324 6.07289 115.555 6.20317C115.805 6.33346 115.959 6.50097 116.017 6.7057C116.094 6.89182 116.133 7.07794 116.133 7.26406L115.902 7.76659C115.998 7.6177 116.133 7.44088 116.306 7.23615C116.479 7.0128 116.71 6.79876 116.999 6.59403C117.288 6.37068 117.634 6.19386 118.039 6.06358C118.443 5.91468 118.924 5.84023 119.482 5.84023C119.713 5.84023 119.954 5.86815 120.204 5.92399C120.474 5.96121 120.734 6.02636 120.984 6.11942C121.254 6.19387 121.494 6.29623 121.706 6.42652C121.918 6.5568 122.081 6.71501 122.197 6.90113C122.312 7.06864 122.37 7.26406 122.37 7.48741C122.37 8.083 122.216 8.58553 121.908 8.995C121.6 9.40446 121.234 9.6092 120.811 9.6092C120.522 9.6092 120.31 9.58128 120.175 9.52544C120.041 9.46961 119.925 9.40446 119.829 9.33001C119.752 9.25557 119.627 9.19042 119.454 9.13459C119.3 9.07875 119.049 9.05083 118.703 9.05083C118.414 9.05083 118.116 9.09736 117.808 9.19042C117.519 9.28348 117.249 9.42308 116.999 9.6092C116.749 9.79532 116.547 10.0373 116.393 10.3351C116.238 10.6143 116.161 10.94 116.161 11.3122V18.0963C116.161 18.4127 116.133 18.7012 116.075 18.9618C116.017 19.2038 115.863 19.3992 115.613 19.5481C115.363 19.697 114.958 19.7714 114.4 19.7714Z" fill="black"/>
<path d="M130.103 19.9389C128.851 19.9389 127.754 19.7435 126.811 19.3527C125.887 18.9618 125.107 18.4314 124.471 17.7613C123.855 17.0727 123.384 16.3096 123.056 15.472C122.748 14.6159 122.594 13.7318 122.594 12.8198C122.594 11.4797 122.912 10.2885 123.547 9.24626C124.183 8.20398 125.059 7.38504 126.175 6.78945C127.311 6.19386 128.611 5.89607 130.074 5.89607C131.113 5.89607 132.028 6.05427 132.817 6.37068C133.606 6.68709 134.261 7.10586 134.781 7.627C135.32 8.12953 135.724 8.68789 135.994 9.3021C136.282 9.9163 136.427 10.5119 136.427 11.0889C136.427 12.0753 136.177 12.7919 135.676 13.2386C135.195 13.6853 134.588 13.9086 133.857 13.9086H126.233C126.252 14.5414 126.454 15.0905 126.839 15.5558C127.244 16.0211 127.744 16.384 128.341 16.6446C128.957 16.8865 129.583 17.0075 130.218 17.0075C130.699 17.0075 131.123 16.9796 131.489 16.9238C131.874 16.8679 132.201 16.8028 132.471 16.7283C132.74 16.6353 132.971 16.5422 133.164 16.4492C133.375 16.3561 133.568 16.2723 133.741 16.1979C133.915 16.1235 134.078 16.0769 134.232 16.0583C134.444 16.0397 134.656 16.0862 134.867 16.1979C135.079 16.3096 135.253 16.505 135.387 16.7842C135.503 16.9703 135.58 17.1471 135.618 17.3146C135.676 17.4635 135.705 17.6124 135.705 17.7613C135.705 18.1336 135.474 18.4872 135.012 18.8222C134.55 19.1386 133.895 19.3992 133.048 19.6039C132.22 19.8273 131.239 19.9389 130.103 19.9389ZM126.233 11.9264H132.153C132.48 11.9264 132.731 11.8799 132.904 11.7868C133.077 11.6751 133.164 11.4518 133.164 11.1168C133.164 10.6887 133.029 10.3072 132.759 9.97213C132.49 9.6185 132.124 9.34863 131.662 9.16251C131.2 8.95777 130.661 8.8554 130.045 8.8554C129.333 8.8554 128.688 8.995 128.11 9.27418C127.533 9.53475 127.07 9.89769 126.724 10.363C126.397 10.8283 126.233 11.3494 126.233 11.9264Z" fill="black"/>
<path d="M145.092 19.9389C143.841 19.9389 142.743 19.7435 141.8 19.3527C140.876 18.9618 140.096 18.4314 139.461 17.7613C138.845 17.0727 138.373 16.3096 138.046 15.472C137.738 14.6159 137.584 13.7318 137.584 12.8198C137.584 11.4797 137.901 10.2885 138.537 9.24626C139.172 8.20398 140.048 7.38504 141.165 6.78945C142.3 6.19386 143.6 5.89607 145.063 5.89607C146.103 5.89607 147.017 6.05427 147.807 6.37068C148.596 6.68709 149.25 7.10586 149.77 7.627C150.309 8.12953 150.714 8.68789 150.983 9.3021C151.272 9.9163 151.416 10.5119 151.416 11.0889C151.416 12.0753 151.166 12.7919 150.665 13.2386C150.184 13.6853 149.578 13.9086 148.846 13.9086H141.222C141.242 14.5414 141.444 15.0905 141.829 15.5558C142.233 16.0211 142.734 16.384 143.33 16.6446C143.947 16.8865 144.572 17.0075 145.208 17.0075C145.689 17.0075 146.112 16.9796 146.478 16.9238C146.863 16.8679 147.19 16.8028 147.46 16.7283C147.73 16.6353 147.961 16.5422 148.153 16.4492C148.365 16.3561 148.557 16.2723 148.731 16.1979C148.904 16.1235 149.068 16.0769 149.222 16.0583C149.433 16.0397 149.645 16.0862 149.857 16.1979C150.069 16.3096 150.242 16.505 150.377 16.7842C150.492 16.9703 150.569 17.1471 150.608 17.3146C150.665 17.4635 150.694 17.6124 150.694 17.7613C150.694 18.1336 150.463 18.4872 150.001 18.8222C149.539 19.1386 148.885 19.3992 148.038 19.6039C147.21 19.8273 146.228 19.9389 145.092 19.9389ZM141.222 11.9264H147.142C147.47 11.9264 147.72 11.8799 147.893 11.7868C148.066 11.6751 148.153 11.4518 148.153 11.1168C148.153 10.6887 148.018 10.3072 147.749 9.97213C147.479 9.6185 147.113 9.34863 146.651 9.16251C146.189 8.95777 145.65 8.8554 145.034 8.8554C144.322 8.8554 143.677 8.995 143.099 9.27418C142.522 9.53475 142.06 9.89769 141.713 10.363C141.386 10.8283 141.222 11.3494 141.222 11.9264Z" fill="black"/>
<path d="M154.912 19.7714C154.392 19.7714 154.007 19.6877 153.757 19.5202C153.526 19.3713 153.382 19.1665 153.324 18.906C153.266 18.6454 153.237 18.3569 153.237 18.0405V7.68284C153.237 7.34782 153.266 7.05933 153.324 6.81737C153.382 6.5568 153.526 6.36137 153.757 6.23109C154.007 6.08219 154.402 6.00774 154.941 6.00774C155.461 6.00774 155.836 6.07289 156.067 6.20317C156.318 6.33346 156.472 6.50097 156.529 6.7057C156.606 6.89182 156.645 7.07794 156.645 7.26406L156.414 7.76659C156.51 7.6177 156.645 7.44088 156.818 7.23615C156.991 7.0128 157.222 6.79876 157.511 6.59403C157.8 6.37068 158.147 6.19386 158.551 6.06358C158.955 5.91468 159.436 5.84023 159.995 5.84023C160.226 5.84023 160.466 5.86815 160.717 5.92399C160.986 5.96121 161.246 6.02636 161.496 6.11942C161.766 6.19387 162.007 6.29623 162.218 6.42652C162.43 6.5568 162.594 6.71501 162.709 6.90113C162.825 7.06864 162.882 7.26406 162.882 7.48741C162.882 8.083 162.728 8.58553 162.42 8.995C162.112 9.40446 161.747 9.6092 161.323 9.6092C161.034 9.6092 160.823 9.58128 160.688 9.52544C160.553 9.46961 160.438 9.40446 160.341 9.33001C160.264 9.25557 160.139 9.19042 159.966 9.13459C159.812 9.07875 159.562 9.05083 159.215 9.05083C158.926 9.05083 158.628 9.09736 158.32 9.19042C158.031 9.28348 157.762 9.42308 157.511 9.6092C157.261 9.79532 157.059 10.0373 156.905 10.3351C156.751 10.6143 156.674 10.94 156.674 11.3122V18.0963C156.674 18.4127 156.645 18.7012 156.587 18.9618C156.529 19.2038 156.375 19.3992 156.125 19.5481C155.875 19.697 155.471 19.7714 154.912 19.7714Z" fill="black"/>
<path d="M47.2564 2.08275C47.2564 3.10615 46.3961 3.93577 45.335 3.93577C44.2738 3.93577 43.4136 3.10615 43.4136 2.08275C43.4136 1.05936 44.2738 0.22974 45.335 0.22974C46.3961 0.22974 47.2564 1.05936 47.2564 2.08275Z" fill="black"/>
</svg>
